<?xml version="1.0" encoding="UTF-8"?>
<svg xmlns="http://www.w3.org/2000/svg" xmlns:xlink="http://www.w3.org/1999/xlink" width="72px" height="72px" viewBox="0 0 72 72" version="1.1">
<g id="surface1">
<path style=" stroke:none;fill-rule:nonzero;fill:rgb(100%,100%,100%);fill-opacity:1;" d="M 64.527344 0 L 7.472656 0 C 3.34375 0 0 3.34375 0 7.472656 L 0 64.527344 C 0 68.65625 3.34375 72 7.472656 72 L 64.527344 72 C 68.65625 72 72 68.65625 72 64.527344 L 72 7.472656 C 72 3.34375 68.65625 0 64.527344 0 Z M 64.527344 0 "/>
<path style=" stroke:none;fill-rule:nonzero;fill:rgb(0%,26.274511%,54.901963%);fill-opacity:1;" d="M 23.566406 63.476562 C 22.664062 62.675781 23.265625 62.324219 23.214844 61.972656 C 22.613281 59.464844 20.605469 57.960938 21.660156 57.160156 C 21.445312 56.527344 21.195312 55.90625 20.90625 55.304688 C 17.800781 53.546875 15.191406 50.640625 14.742188 50.238281 C 14.289062 49.839844 13.285156 49.035156 13.085938 48.585938 C 12.886719 48.132812 8.722656 42.71875 7.871094 40.863281 L 6.417969 40.664062 C 5.765625 37.90625 3.511719 35.597656 3.460938 32.890625 C 3.527344 31.632812 3.746094 30.386719 4.113281 29.179688 C 4.402344 28.730469 4.757812 28.324219 5.164062 27.976562 L 5.164062 27.226562 C 1.957031 27.324219 2.859375 26.976562 2.304688 25.722656 C 1.753906 24.46875 2.207031 24.667969 2.355469 24.066406 C 2.808594 22.3125 4.210938 19.554688 4.8125 18.300781 C 5.414062 17.046875 5.617188 16.144531 5.617188 16.144531 C 8.023438 11.28125 8.925781 11.632812 11.78125 11.332031 L 11.933594 11.128906 C 14.792969 11.03125 14.339844 10.78125 14.742188 8.023438 C 14.339844 8.222656 14.1875 7.167969 14.1875 7.167969 C 13.9375 5.617188 14.640625 5.917969 14.941406 5.867188 C 14.992188 3.308594 15.292969 2.457031 17.148438 1.753906 L 7.472656 1.753906 C 4.3125 1.753906 1.753906 4.3125 1.753906 7.46875 L 1.753906 64.527344 C 1.753906 67.6875 4.3125 70.246094 7.472656 70.246094 L 24.316406 70.246094 C 22.363281 69.191406 23.515625 67.238281 23.566406 63.476562 "/>
<path style=" stroke:none;fill-rule:nonzero;fill:rgb(85.490197%,10.196079%,19.607843%);fill-opacity:1;" d="M 64.527344 1.753906 L 18.851562 1.753906 C 19.546875 1.941406 20.140625 2.390625 20.507812 3.007812 C 21.207031 3.058594 22.0625 4.664062 20.757812 6.96875 C 21.359375 7.371094 20.90625 7.921875 20.457031 8.574219 C 20.003906 9.226562 20.207031 9.175781 19.855469 9.125 C 19.355469 10.179688 18.753906 11.179688 18.300781 11.230469 C 18.101562 11.457031 18.082031 11.785156 18.25 12.035156 C 18.921875 12.308594 19.546875 12.679688 20.105469 13.136719 L 20.105469 13.386719 C 20.605469 13.6875 20.859375 13.9375 21.410156 14.238281 C 22.761719 15.09375 24.46875 16.644531 24.265625 21.960938 C 24.667969 23.113281 24.820312 25.371094 25.167969 26.121094 C 25.519531 26.875 26.375 28.480469 26.574219 29.78125 C 26.574219 29.78125 26.773438 31.738281 27.023438 31.988281 L 27.175781 31.988281 C 28.328125 32.238281 28.128906 32.390625 28.226562 32.589844 L 28.527344 32.839844 C 28.832031 32.992188 29.332031 33.140625 29.332031 33.695312 L 29.582031 34.09375 C 29.734375 34.335938 29.871094 34.585938 29.984375 34.847656 C 30.386719 35.980469 30.386719 37.222656 29.984375 38.355469 L 29.984375 38.507812 C 29.539062 39.605469 28.722656 40.511719 27.675781 41.0625 L 27.578125 41.0625 L 27.425781 41.164062 C 26.75 41.484375 26.015625 41.65625 25.269531 41.664062 C 22.46875 41.292969 20.5 38.722656 20.875 35.921875 C 21.117188 34.082031 22.339844 32.519531 24.066406 31.839844 C 23.464844 30.382812 22.261719 28.027344 21.910156 27.277344 C 21.558594 26.523438 20.707031 21.660156 20.558594 20.707031 C 20.40625 19.753906 18.351562 21.960938 18.351562 22.0625 C 18.351562 22.160156 16.746094 26.074219 16.695312 26.273438 C 16.660156 26.488281 16.644531 26.707031 16.644531 26.925781 C 16.644531 26.925781 17.398438 27.023438 17.800781 28.277344 C 18.199219 29.53125 19.503906 34.195312 19.503906 34.195312 L 19.152344 34.546875 C 20.757812 39.910156 20.207031 42.21875 20.90625 43.820312 C 21.609375 45.425781 22.0625 45.726562 22.8125 47.632812 C 23.566406 49.539062 23.964844 54.351562 24.21875 54.550781 C 25.070312 55.65625 25.570312 56.507812 25.570312 57.109375 C 25.570312 57.710938 24.820312 59.566406 25.121094 60.667969 C 25.421875 61.773438 25.371094 62.722656 25.671875 62.976562 C 25.972656 63.226562 25.921875 63.527344 25.820312 63.726562 C 25.765625 63.816406 25.730469 63.921875 25.722656 64.027344 C 26.171875 65.734375 27.726562 68.589844 25.269531 70.09375 L 25.121094 70.195312 L 64.628906 70.195312 C 67.746094 70.167969 70.269531 67.648438 70.296875 64.53125 L 70.296875 7.472656 C 70.269531 4.304688 67.695312 1.753906 64.527344 1.753906 Z M 64.527344 1.753906 "/>
<path style=" stroke:none;fill-rule:nonzero;fill:rgb(100%,100%,100%);fill-opacity:1;" d="M 63.425781 15.34375 L 57.710938 15.34375 L 56.457031 36.148438 L 55.605469 49.886719 L 54.753906 36.351562 L 53.347656 15.34375 L 47.382812 15.34375 L 51.742188 56.707031 L 58.964844 56.707031 Z M 31.839844 20.507812 L 36.101562 20.507812 L 36.101562 56.65625 L 41.664062 56.65625 L 41.664062 20.507812 L 46.027344 20.507812 L 46.027344 15.292969 L 31.839844 15.292969 Z M 31.839844 20.507812 "/>
<path style=" stroke:none;fill-rule:nonzero;fill:rgb(100%,100%,100%);fill-opacity:1;" d="M 10.628906 66.683594 L 10.628906 56.355469 L 12.636719 56.355469 C 13.789062 56.355469 14.488281 56.957031 14.488281 58.414062 L 14.488281 59.964844 C 14.488281 60.917969 14.1875 61.371094 13.789062 61.621094 C 14.265625 61.96875 14.53125 62.535156 14.488281 63.125 L 14.488281 64.628906 C 14.488281 66.035156 13.738281 66.683594 12.636719 66.683594 Z M 12.035156 62.171875 L 12.035156 65.382812 L 12.585938 65.382812 C 13.035156 65.382812 13.1875 65.132812 13.1875 64.628906 L 13.1875 62.875 C 13.1875 62.375 13.035156 62.171875 12.585938 62.171875 Z M 12.035156 57.660156 L 12.035156 61.070312 L 12.535156 61.070312 C 13.035156 61.070312 13.136719 60.917969 13.136719 60.316406 L 13.136719 58.3125 C 13.136719 57.8125 12.984375 57.609375 12.535156 57.609375 L 12.035156 57.609375 Z M 17.800781 64.578125 L 16.546875 64.578125 L 16.394531 66.683594 L 14.992188 66.683594 L 16.246094 56.355469 L 18.199219 56.355469 L 19.402344 66.683594 L 17.949219 66.683594 Z M 17.148438 57.507812 L 17.097656 57.507812 C 16.996094 58.761719 16.847656 60.917969 16.796875 61.621094 L 16.644531 63.425781 L 17.699219 63.425781 L 17.546875 61.621094 C 17.5 60.917969 17.296875 58.761719 17.148438 57.507812 M 6.566406 66.683594 L 5.363281 66.683594 L 5.363281 56.355469 L 7.269531 56.355469 L 8.824219 64.832031 C 8.675781 62.824219 8.523438 60.367188 8.523438 58.261719 L 8.523438 56.355469 L 9.726562 56.355469 L 9.726562 66.683594 L 7.972656 66.683594 L 6.417969 58.414062 C 6.519531 60.316406 6.566406 61.871094 6.566406 63.425781 Z M 6.566406 66.683594 "/>
</g>
</svg>
